<svg xmlns="http://www.w3.org/2000/svg" viewBox="0 0 12.366 15">
  <defs>
    <style>
      .cls-1 {
        fill: #c8a480;
      }
    </style>
  </defs>
  <g id="refresh" transform="translate(-54.637)">
    <g id="Group_417" data-name="Group 417" transform="translate(54.637 0)">
      <path id="Path_265" data-name="Path 265" class="cls-1" d="M54.678,8.025a5.4,5.4,0,0,1,.2-2.269,6.035,6.035,0,0,1,5.75-4.116V.1a.118.118,0,0,1,.188-.079l3.357,2.327a.094.094,0,0,1,0,.156L60.822,4.831a.118.118,0,0,1-.188-.079V3.216a4.4,4.4,0,0,0-3.976,2.541,3.886,3.886,0,0,0-.34,1.814,4,4,0,0,0,.958,2.36.759.759,0,0,1-.159,1.13.877.877,0,0,1-1.159-.153A5.484,5.484,0,0,1,54.678,8.025Zm9.693-2.956a3.9,3.9,0,0,1,.618,4.174,4.4,4.4,0,0,1-3.976,2.541V10.248a.118.118,0,0,0-.188-.079L57.468,12.5a.094.094,0,0,0,0,.156l3.354,2.327a.118.118,0,0,0,.188-.079V13.36a6.025,6.025,0,0,0,5.75-4.116,5.417,5.417,0,0,0-1.075-5.151.877.877,0,0,0-1.159-.153A.761.761,0,0,0,64.371,5.069Z" transform="translate(-54.637 0)"/>
    </g>
  </g>
</svg>
